HIERARCHY
ROOT Hips
{
	OFFSET 0.000000 0.000000 0.000000
	CHANNELS 6 Xposition Yposition Zposition Xrotation Yrotation Zrotation
	JOINT LeftUpLeg_virtual
	{
		OFFSET 0.000000 0.000000 0.000000
		CHANNELS 3 Xrotation Yrotation Zrotation
		JOINT LeftUpLeg
		{
			OFFSET 15.427100 -6.655098 0.678600
			CHANNELS 3 Xrotation Yrotation Zrotation
			JOINT LeftLeg
			{
				OFFSET 4.081073 -39.591068 13.024000
				CHANNELS 3 Xrotation Yrotation Zrotation
				JOINT LeftFoot
				{
					OFFSET -4.081074 -37.707932 -15.979700
					CHANNELS 3 Xrotation Yrotation Zrotation
					JOINT LeftToeBase
					{
						OFFSET 5.346399 -15.068900 20.645000
						CHANNELS 3 Xrotation Yrotation Zrotation
						JOINT LeftToe_End
						{
							OFFSET 2.754700 0.931300 11.300900
							CHANNELS 3 Xrotation Yrotation Zrotation
							End Site
							{
								OFFSET 0 0 0
							}
						}
					}
				}
			}
		}
	}
	JOINT RightUpLeg_virtual
	{
		OFFSET 0.000000 0.000000 0.000000
		CHANNELS 3 Xrotation Yrotation Zrotation
		JOINT RightUpLeg
		{
			OFFSET -15.569500 -6.655098 0.678600
			CHANNELS 3 Xrotation Yrotation Zrotation
			JOINT RightLeg
			{
				OFFSET -4.081825 -39.591045 13.023800
				CHANNELS 3 Xrotation Yrotation Zrotation
				JOINT RightFoot
				{
					OFFSET 4.081824 -37.707954 -15.979600
					CHANNELS 3 Xrotation Yrotation Zrotation
					JOINT RightToeBase
					{
						OFFSET -5.346400 -15.068900 20.645000
						CHANNELS 3 Xrotation Yrotation Zrotation
						JOINT RightToe_End
						{
							OFFSET -2.754700 0.931300 11.300900
							CHANNELS 3 Xrotation Yrotation Zrotation
							End Site
							{
								OFFSET 0 0 0
							}
						}
					}
				}
			}
		}
	}
	JOINT Spine_virtual
	{
		OFFSET 0.000000 0.000000 0.000000
		CHANNELS 3 Xrotation Yrotation Zrotation
		JOINT Spine
		{
			OFFSET -0.279200 12.230698 -2.892100
			CHANNELS 3 Xrotation Yrotation Zrotation
			JOINT Spine1
			{
				OFFSET -0.232667 10.192268 -1.242267
				CHANNELS 3 Xrotation Yrotation Zrotation
				JOINT Spine1_split
				{
					OFFSET -0.232667 10.192268 -1.242267
					CHANNELS 3 Xrotation Yrotation Zrotation
					JOINT Spine2
					{
						OFFSET -0.232667 10.192268 -1.242267
						CHANNELS 3 Xrotation Yrotation Zrotation
						JOINT Neck_virtual
						{
							OFFSET 0.000000 0.000000 0.000000
							CHANNELS 3 Xrotation Yrotation Zrotation
							JOINT Neck
							{
								OFFSET -0.418800 17.814194 8.416900
								CHANNELS 3 Xrotation Yrotation Zrotation
								JOINT Head
								{
									OFFSET 0.000000 7.031097 3.806800
									CHANNELS 3 Xrotation Yrotation Zrotation
									JOINT HeadTop_End
									{
										OFFSET 0.000000 24.646606 12.978600
										CHANNELS 3 Xrotation Yrotation Zrotation
										End Site
										{
											OFFSET 0 0 0
										}
									}
								}
							}
						}
						JOINT LeftShoulder_virtual
						{
							OFFSET 0.000000 0.000000 0.000000
							CHANNELS 3 Xrotation Yrotation Zrotation
							JOINT LeftShoulder
							{
								OFFSET 8.476499 7.247704 -3.868750
								CHANNELS 3 Xrotation Yrotation Zrotation
								JOINT LeftShoulder_split
								{
									OFFSET 8.476499 7.247704 -3.868750
									CHANNELS 3 Xrotation Yrotation Zrotation
									JOINT LeftArm
									{
										OFFSET 9.308998 -2.777710 0.208600
										CHANNELS 3 Xrotation Yrotation Zrotation
										JOINT LeftForeArm
										{
											OFFSET 29.972298 0.000000 0.000000
											CHANNELS 3 Xrotation Yrotation Zrotation
											JOINT LeftHand
											{
												OFFSET 26.026505 0.000000 0.000000
												CHANNELS 3 Xrotation Yrotation Zrotation
												End Site
												{
													OFFSET 0 0 0
												}
											}
										}
									}
								}
							}
						}
						JOINT RightShoulder_virtual
						{
							OFFSET 0.000000 0.000000 0.000000
							CHANNELS 3 Xrotation Yrotation Zrotation
							JOINT RightShoulder
							{
								OFFSET -7.570500 7.247704 -3.868750
								CHANNELS 3 Xrotation Yrotation Zrotation
								JOINT RightShoulder_split
								{
									OFFSET -7.570500 7.247704 -3.868750
									CHANNELS 3 Xrotation Yrotation Zrotation
									JOINT RightArm
									{
										OFFSET -9.308998 -2.777710 0.208500
										CHANNELS 3 Xrotation Yrotation Zrotation
										JOINT RightForeArm
										{
											OFFSET -29.972300 0.000000 0.000000
											CHANNELS 3 Xrotation Yrotation Zrotation
											JOINT RightHand
											{
												OFFSET -26.026505 0.000000 0.000000
												CHANNELS 3 Xrotation Yrotation Zrotation
												End Site
												{
													OFFSET 0 0 0
												}
											}
										}
									}
								}
							}
						}
					}
				}
			}
		}
	}
}
MOTION
Frames: 11
Frame Time: 0.03333333
-11.554916 14.648796 -65.794708 0.000000 0.000000 0.000000 -98.436434 20.128854 2.430037 -55.333234 17.010496 22.329470 63.884241 11.499678 1.389802 29.381479 3.667923 -11.495214 -4.781068 0.099312 -0.348451 0.000000 0.000000 0.000000 -95.600723 21.061421 1.955829 -29.171926 -3.628302 -50.194531 91.391414 28.519581 10.591591 5.860290 -4.790813 21.600945 0.948005 2.288388 0.508489 0.000000 0.000000 0.000000 -93.950953 18.661048 -1.958962 55.619009 13.246868 -0.878638 18.349817 4.148548 0.287158 0.084838 -3.675436 0.463010 0.000000 0.000000 0.000000 22.542995 4.319491 -0.229758 12.105743 -1.314538 -4.031824 29.685730 1.766245 0.679413 0.000000 0.000000 0.000000 20.771893 3.587297 0.035272 1.271340 -5.190623 -10.429704 -1.159113 -3.375116 -5.687992 -33.230667 -20.046040 -34.961368 -7.553907 -58.629149 -2.988343 0.000000 0.000000 0.000000 19.669463 3.031163 0.049381 0.477558 13.034734 15.990427 -2.418028 -1.678735 -2.892559 -25.497448 -7.300924 38.062551 2.200272 47.215380 -2.040734 0.000000 0.000000 0.000000 
-12.751830 14.471230 -67.803680 0.000000 0.000000 0.000000 -105.856840 21.463098 2.899092 -53.913272 11.500606 25.062066 64.302973 9.437749 2.349441 32.072024 1.113995 -11.755376 -3.699074 0.410817 -1.389595 0.000000 0.000000 0.000000 -102.577482 22.757483 2.547190 -14.365647 -2.738898 -42.213339 83.881403 28.054768 7.324741 1.023662 -6.307697 26.619383 1.145540 2.468351 1.093922 0.000000 0.000000 0.000000 -101.622983 19.651055 -2.560140 52.998586 13.601869 1.233022 19.279911 4.358207 0.468269 0.327784 -3.322868 0.754080 0.000000 0.000000 0.000000 22.702015 4.448823 -0.397953 12.119788 -1.931069 -3.633749 31.609572 1.842241 -1.115584 0.000000 0.000000 0.000000 21.186685 3.733074 0.262985 1.132455 -4.601651 -8.591962 -0.778270 -3.484329 -5.572265 -27.692495 -21.269332 -32.270632 -9.287684 -60.674824 -4.427525 0.000000 0.000000 0.000000 20.142436 3.322579 0.255859 0.281568 13.888449 15.679126 -3.079093 0.669440 -2.707823 -15.394247 -6.085234 38.304681 2.061583 41.544274 -1.225588 0.000000 0.000000 0.000000 
-13.631243 14.720722 -69.727425 0.000000 0.000000 0.000000 -112.442460 22.537140 3.477825 -51.667960 6.111296 28.092056 64.449467 6.972042 3.059967 34.560969 -1.754157 -11.884848 -1.671143 0.674588 -2.232049 0.000000 0.000000 0.000000 -109.061264 24.699777 3.654727 -1.755697 0.650070 -35.897326 77.362083 26.897780 4.348621 -4.418022 -8.697656 27.237514 1.858162 2.485136 1.749263 0.000000 0.000000 0.000000 -108.841612 21.153178 -2.641660 50.345024 12.330448 3.385011 19.292887 4.041366 0.591002 1.655816 -2.447344 1.671987 0.000000 0.000000 0.000000 22.041236 4.079996 -0.514438 11.738000 -2.417102 -2.754825 31.953479 1.732301 -2.886530 0.000000 0.000000 0.000000 20.587321 3.284275 0.488133 0.785564 -4.669833 -7.155843 -0.250800 -3.507519 -4.901027 -22.012385 -22.003222 -30.644702 -9.866676 -60.728182 -5.019637 0.000000 0.000000 0.000000 19.621527 3.063932 0.458843 0.423324 14.551365 15.013644 -3.886864 2.512805 -2.511067 -4.794911 -3.063329 37.830843 2.110391 33.813562 -0.682743 0.000000 0.000000 0.000000 
-14.322620 15.306236 -71.592812 0.000000 0.000000 0.000000 -118.065065 23.155825 4.339740 -47.810334 1.881294 31.032739 63.666317 4.867492 3.573464 34.812357 -3.960590 -11.836877 0.143026 0.874175 -2.539391 0.000000 0.000000 0.000000 -115.044319 26.292086 5.484282 7.093286 5.009747 -32.632192 74.516858 25.259607 2.169659 -8.599961 -10.826419 24.301075 2.475720 2.396869 1.982761 0.000000 0.000000 0.000000 -115.244047 22.704556 -1.535442 47.705122 9.238231 4.954132 18.176534 3.091640 0.575712 2.313507 -1.610260 2.244303 0.000000 0.000000 0.000000 20.455757 3.155636 -0.611608 11.042807 -2.707980 -1.484667 31.051584 1.971104 -4.854854 0.000000 0.000000 0.000000 18.953650 2.228446 0.614612 0.343003 -4.934760 -6.335746 0.444653 -3.436440 -3.689905 -15.626723 -22.268973 -29.870135 -8.937162 -58.648478 -4.428933 0.000000 0.000000 0.000000 18.029891 2.101794 0.568377 0.892779 14.469962 14.066877 -4.081094 3.157968 -2.317775 5.647848 0.960829 37.196210 2.468226 29.271097 -0.593051 0.000000 0.000000 0.000000 
-14.948502 16.123932 -73.512566 0.000000 0.000000 0.000000 -122.172331 23.129927 5.173735 -42.704364 -0.608205 34.026080 61.757648 3.269329 3.897821 32.073629 -5.392933 -12.024123 0.735856 1.037687 -2.163006 0.000000 0.000000 0.000000 -120.187902 27.055530 7.774738 11.687717 8.924113 -32.349873 76.318649 23.868426 1.056868 -10.376011 -11.616912 21.037599 1.770744 2.226657 1.686018 0.000000 0.000000 0.000000 -120.459812 23.736550 0.569299 45.098622 4.573227 5.516214 16.041010 1.556846 0.374002 2.363390 -0.971572 2.450606 0.000000 0.000000 0.000000 18.061494 1.696588 -0.705796 9.691116 -2.758394 -0.240029 29.088498 2.807559 -7.154315 0.000000 0.000000 0.000000 16.506479 0.663303 0.609335 -0.066707 -5.068098 -5.860461 0.716939 -2.930752 -2.751850 -7.829567 -22.041145 -29.244551 -7.364444 -54.730473 -3.363161 0.000000 0.000000 0.000000 15.468657 0.452752 0.518732 1.548548 13.338363 12.987303 -3.442749 2.514273 -2.248416 15.593388 4.934395 36.753924 3.019915 31.581897 -0.964388 0.000000 0.000000 0.000000 
-15.514375 16.941620 -75.609917 0.000000 0.000000 0.000000 -125.164678 22.507206 5.808297 -37.620757 -1.786499 36.760987 59.687124 2.274375 4.127252 27.141005 -6.118789 -12.611282 -0.018107 1.167119 -1.323339 0.000000 0.000000 0.000000 -124.355069 26.895328 9.884692 12.855170 12.071061 -33.738092 81.011146 23.031579 0.819204 -9.951345 -11.068796 18.803982 -0.167049 2.040395 1.040707 0.000000 0.000000 0.000000 -124.228410 23.792974 2.910703 42.681907 -0.926661 5.130509 13.237853 -0.350185 -0.034139 1.472431 -0.880868 1.917478 0.000000 0.000000 0.000000 15.129798 -0.068123 -0.823895 7.608330 -2.642829 0.748999 26.425165 4.450155 -9.762605 0.000000 0.000000 0.000000 13.668236 -1.197996 0.417011 -0.365492 -4.598177 -5.546560 0.594442 -2.374102 -2.272385 1.539712 -21.238022 -27.897669 -5.903934 -50.124054 -2.409117 0.000000 0.000000 0.000000 12.423412 -1.595132 0.232302 2.183492 11.222939 11.480658 -1.995132 1.071299 -1.974186 24.429317 7.862469 36.273960 3.806888 40.522334 -1.896492 0.000000 0.000000 0.000000 
-16.104212 17.433720 -77.934738 0.000000 0.000000 0.000000 -127.212628 21.784996 6.669626 -33.823746 -2.215905 39.214961 58.257634 2.012318 4.234064 21.257922 -5.850078 -13.178269 -0.503195 1.238846 -0.723318 0.000000 0.000000 0.000000 -126.877457 25.882503 11.195899 11.673698 14.544275 -35.767016 85.965048 22.818643 1.284074 -8.739923 -9.568366 16.831150 -0.784309 1.899007 0.529172 0.000000 0.000000 0.000000 -126.383334 23.089613 4.802948 40.436868 -6.308162 4.173907 10.323929 -2.331394 -0.516876 -0.010961 -0.897372 1.107454 0.000000 0.000000 0.000000 12.094598 -1.879437 -1.022457 4.732232 -2.513107 1.138620 23.393164 6.967228 -12.614038 0.000000 0.000000 0.000000 10.990969 -2.979501 0.073732 -0.464194 -3.332210 -5.159482 0.032281 -2.020961 -2.243913 11.994447 -19.735746 -25.376518 -4.864187 -45.965022 -1.696505 0.000000 0.000000 0.000000 9.371785 -3.646082 -0.254172 2.624650 8.487103 9.668850 0.136671 -0.145005 -1.676517 31.626457 9.432782 35.828994 5.031354 52.660335 -3.462630 0.000000 0.000000 0.000000 
-16.714417 17.538918 -80.703323 0.000000 0.000000 0.000000 -128.180166 21.009254 7.397920 -31.728189 -2.445540 41.419602 57.748218 2.387275 4.317171 15.668630 -4.846108 -13.582342 0.566924 1.305254 -0.766660 0.000000 0.000000 0.000000 -127.884883 24.356204 11.446425 9.268789 16.504172 -37.459168 89.363545 22.763453 2.301859 -8.562047 -7.823095 14.098768 1.572348 1.782816 0.579290 0.000000 0.000000 0.000000 -127.169448 21.900781 5.621515 38.535022 -10.821616 3.005719 7.809024 -4.045186 -0.959888 -0.818858 -0.729328 0.936732 0.000000 0.000000 0.000000 9.275413 -3.450880 -1.247677 1.145258 -2.373656 0.796869 20.290284 10.105944 -15.531037 0.000000 0.000000 0.000000 8.809577 -4.470008 -0.351030 -0.369787 -1.477030 -4.469958 -0.762771 -1.756170 -2.877710 22.093239 -17.188576 -22.039543 -4.161345 -43.256695 -1.146966 0.000000 0.000000 0.000000 6.826458 -5.260322 -0.817913 2.732501 5.765795 7.908004 2.150014 -0.714149 -1.098347 36.781467 10.095369 35.314527 6.261649 61.642983 -5.170790 0.000000 0.000000 0.000000 
-17.223701 16.980980 -83.891418 0.000000 0.000000 0.000000 -128.367463 20.253300 7.926898 -31.158104 -2.738379 43.186733 57.851593 3.282151 4.515879 11.114185 -3.444996 -13.976076 2.883233 1.399757 -1.398050 0.000000 0.000000 0.000000 -127.696684 22.764594 10.875366 6.682390 18.047685 -38.173435 90.542873 22.506245 3.546733 -9.640593 -6.254055 10.591686 5.072869 1.636088 1.080037 0.000000 0.000000 0.000000 -127.042980 20.475502 5.441987 37.051338 -13.975229 1.925691 6.011862 -5.288365 -1.272628 -1.149092 -0.604804 0.860229 0.000000 0.000000 0.000000 6.968597 -4.591104 -1.473419 -2.593950 -2.290050 -0.164551 17.414004 13.683871 -18.288477 0.000000 0.000000 0.000000 7.180273 -5.462556 -0.815600 -0.140506 0.781376 -3.721686 -1.508637 -1.810074 -3.477110 30.659271 -13.721091 -18.442361 -3.305982 -42.455664 -0.484814 0.000000 0.000000 0.000000 5.067108 -6.204271 -1.321169 2.505975 3.361810 6.650927 3.644948 -0.300268 -0.564830 39.443304 10.522957 34.622444 5.850254 63.107478 -5.275665 0.000000 0.000000 0.000000 
-17.634621 15.855839 -87.083908 0.000000 0.000000 0.000000 -127.635772 19.510418 8.073511 -31.474164 -2.921461 44.364664 58.071511 4.475032 4.814569 7.720460 -1.985545 -14.445915 5.484470 1.431170 -2.314251 0.000000 0.000000 0.000000 -126.685229 21.255769 9.804225 4.335416 18.741861 -38.075275 90.511474 22.064834 4.682116 -10.624340 -4.868762 7.739732 6.828341 1.430414 1.720233 0.000000 0.000000 0.000000 -126.199069 19.164836 4.605456 35.858466 -15.780561 0.874915 4.945774 -5.979204 -1.449648 -0.741784 -0.433916 1.398401 0.000000 0.000000 0.000000 5.265926 -5.248440 -1.666680 -6.076364 -2.225965 -1.607843 15.016835 17.217150 -20.679824 0.000000 0.000000 0.000000 6.015136 -5.931579 -1.291643 0.179010 2.940980 -3.072258 -2.383524 -1.856031 -3.963754 36.897054 -9.860651 -15.179201 -2.057730 -42.893547 0.415832 0.000000 0.000000 0.000000 4.050516 -6.461857 -1.657847 2.092030 1.505825 6.461370 4.239219 0.469463 -0.312989 39.550569 11.397014 33.996252 3.769193 57.028302 -3.681212 0.000000 0.000000 0.000000 
-17.774786 14.415337 -89.805222 0.000000 0.000000 0.000000 -126.006581 18.620025 7.542373 -32.262279 -2.547076 44.760371 58.233162 5.605360 5.134928 5.731843 -1.099594 -15.201462 7.538397 1.350895 -3.086172 0.000000 0.000000 0.000000 -125.465275 20.043074 8.662722 2.437403 18.246719 -37.251210 89.715108 21.722947 5.317420 -10.947097 -3.736606 6.893470 5.448774 1.071333 2.051067 0.000000 0.000000 0.000000 -125.095242 17.974717 3.643874 34.805794 -16.545358 -0.365709 4.384737 -6.161544 -1.608655 0.681699 -0.780933 1.713471 0.000000 0.000000 0.000000 4.157282 -5.476748 -1.826233 -8.807485 -2.041967 -2.990663 13.096617 20.227715 -22.517471 0.000000 0.000000 0.000000 4.961099 -5.995128 -1.802041 0.494459 4.734285 -2.773943 -3.250091 -1.935130 -4.348441 40.573192 -6.365136 -12.452835 -0.395737 -43.424984 1.483369 0.000000 0.000000 0.000000 3.578135 -6.224817 -1.821839 1.612527 -0.010658 7.386085 4.033469 1.024681 -0.380990 37.438702 12.928822 33.607113 1.919447 46.532747 -2.173183 0.000000 0.000000 0.000000 
